<svg viewBox="0 0 800 800" xmlns="http://www.w3.org/2000/svg"><path d="M261.01645718360805,286.70618312416025 L245.18141428580944,312.1855983148423 M245.18141428580944,312.1855983148423 L226.40438261123506,334.4935654091657 M226.40438261123506,334.4935654091657 L205.77850646217183,352.3304949057168 M205.77850646217183,352.3304949057168 L184.50484122235014,364.65633431728804 M184.50484122235014,364.65633431728804 L163.82279198265115,370.75111897858153 M163.82279198265115,370.75111897858153 L144.93818037619596,370.2571884665316 M144.93818037619596,370.2571884665316 L128.9530754458171,363.20052187975926 M128.9530754458171,363.20052187975926 L116.80139349862554,349.98988487890006 M116.80139349862554,349.98988487890006 L109.194110699004,331.39365410765106 M109.194110699004,331.39365410765106 L106.57728695232186,308.49551399367704 M106.57728695232186,308.49551399367704 L109.10555729663236,282.63149362283616 M109.10555729663236,282.63149362283616 L116.63260614599227,255.31200232189437 M116.63260614599227,255.31200232189437 L128.71948114569523,228.13332228143145 M128.71948114569523,228.13332228143145 L144.66012840006198,202.68392949367296 M144.66012840006198,202.68392949367296 L163.52281924483268,180.45111634763413 M163.52281924483268,180.45111634763413 L184.2049046644696,162.73363712994893 M184.2049046644696,162.73363712994893 L205.49767821611513,150.5655282011818 M205.49767821611513,150.5655282011818 L226.15737728564085,144.6556819473798 M226.15737728564085,144.6556819473798 L244.97811611791028,145.34671311222326 M244.97811611791028,145.34671311222326 L260.8623849388314,152.595459325956 M588.768197668551,475.91820275196164 L261.01645718360805,286.70618312416025 M588.8072475969537,341.69560848708306 L572.946525784454,334.4636244611532 M572.946525784454,334.4636244611532 L554.142313134926,333.79906317394807 M554.142313134926,333.79906317394807 L533.4911508681325,339.74355057907223 M533.4911508681325,339.74355057907223 L512.1984241961782,351.9524555030758 M512.1984241961782,351.9524555030758 L491.50789297596265,369.7145057312852 M491.50789297596265,369.7145057312852 L472.6287588509899,391.9930604933051 M472.6287588509899,391.9930604933051 L456.66463452199594,417.48668940907805 M456.66463452199594,417.48668940907805 L444.5486235836501,444.7055102269155 M444.5486235836501,444.7055102269155 L436.9884846826162,472.0586965039587 M436.9884846826162,472.0586965039587 L434.42510410605314,497.9479942030392 M434.42510410605314,497.9479942030392 L437.006846927728,520.8615171334035 M437.006846927728,520.8615171334035 L444.5811232990013,539.4623410993347 M444.5811232990013,539.4623410993347 L456.7037951990598,552.6665199153056 M456.7037951990598,552.6665199153056 L472.6655737704808,559.7060624358476 M472.6655737704808,559.7060624358476 L491.5338981391125,560.1732112266282 M491.5338981391125,560.1732112266282 L512.2076449967633,554.0435572149249 M512.2076449967633,554.0435572149249 L533.4814745887032,541.6767992651805 M533.4814745887032,541.6767992651805 L554.1159722875917,523.7952890345825 M554.1159722875917,523.7952890345825 L572.9095823064672,501.44167530825894 M572.9095823064672,501.44167530825894 L588.768197668551,475.91820275196164 M588.8072475969537,341.69560848708306 L260.8623849388314,152.595459325956 M554.0455604777792,128.82097665227644 L707.2602942495726,217.01800867003269 M543.3144861854685,115.68584453716875 L547.064198465559,119.83585853189754 M547.064198465559,119.83585853189754 L550.6423468390617,124.21565871955619 M550.6423468390617,124.21565871955619 L554.0455604777792,128.82097665227644 M543.3144861854685,115.68584453716875 L696.5422296174922,203.88495519142464 M696.5422296174922,203.88495519142464 L700.287692256228,208.03407165133245 M700.287692256228,208.03407165133245 L703.8615026750224,212.41317876817777 M703.8615026750224,212.41317876817777 L707.2602942495726,217.01800867003269 M582.4495694457366,224.39137166662525 L582.6529002287127,231.91600929337548 M582.6529002287127,231.91600929337548 L582.6508834019191,239.56218032084507 M582.6508834019191,239.56218032084507 L582.4435415796048,247.3225256300555 M582.4495694457366,224.39137166662525 L735.5889207429839,312.6065621793198 M735.5889207429839,312.6065621793198 L735.7871063859266,320.13399123205005 M735.7871063859266,320.13399123205005 L735.779942505098,327.78313852015015 M735.779942505098,327.78313852015015 L735.5674566765724,335.5466420556122 M582.4435415796048,247.3225256300555 L735.5674566765724,335.5466420556122 M554.0114934323008,375.5237953329536 L550.6103498931298,384.0369175323896 M550.6103498931298,384.0369175323896 L547.0348998288353,392.5253867040908 M547.0348998288353,392.5253867040908 L543.2885287972006,400.98109750952443 M554.0114934323008,375.5237953329536 L707.0601701115525,463.816849287833 M707.0601701115525,463.816849287833 L703.6546200428681,472.335564642827 M703.6546200428681,472.335564642827 L700.0748479612807,480.8297345080827 M700.0748479612807,480.8297345080827 L696.324243554661,489.2912481500214 M543.2885287972006,400.98109750952443 L696.324243554661,489.2912481500214 M467.07452434239997,521.2387853331788 L461.14624477693343,528.0485020076001 M461.14624477693343,528.0485020076001 L455.1295008615691,534.6953208153612 M455.1295008615691,534.6953208153612 L449.0300559308179,541.172860914656 M467.07452434239997,521.2387853331788 L620.0589562966973,609.646897070293 M620.0589562966973,609.646897070293 L614.1283994957685,616.4632473062632 M614.1283994957685,616.4632473062632 L608.109522191445,623.1166962544921 M608.109522191445,623.1166962544921 L602.0080897485063,629.6008567318503 M449.0300559308179,541.172860914656 L602.0080897485063,629.6008567318503 M466.9676009921155,83.1295373963743 L620.2468618241326,171.3671645777374 M448.88219203296285,83.98509753593487 L454.99566027915364,83.43430167434991 M454.99566027915364,83.43430167434991 L461.026064433566,83.14903543868058 M461.026064433566,83.14903543868058 L466.9676009921155,83.1295373963743 M448.88219203296285,83.98509753593487 L602.1678796426113,172.2351926666099 M602.1678796426113,172.2351926666099 L608.2793518479257,171.6800799586039 M608.2793518479257,171.6800799586039 L614.307613047036,171.3906564199889 M614.307613047036,171.3906564199889 L620.2468618241326,171.3671645777374 M348.7551015266147,124.94175841924596 L502.0519454532943,213.27505782955637 M329.05546148279194,139.54730502592986 L335.5918070988569,134.46052883005757 M335.5918070988569,134.46052883005757 L342.1604737615325,129.59044487411745 M342.1604737615325,129.59044487411745 L348.7551015266147,124.94175841924596 M329.05546148279194,139.54730502592986 L482.3500872387938,227.89954064147977 M482.3500872387938,227.89954064147977 L488.88733095363443,222.80638704331767 M488.88733095363443,222.80638704331767 L495.4567372496733,217.92998898283497 M495.4567372496733,217.92998898283497 L502.0519454532943,213.27505782955637 M167.33216565672154,394.6639887771576 L320.51764046719234,483.22460916735906 M161.75336931247958,419.9369946249246 L163.4145663732349,411.56142676060233 M163.4145663732349,411.56142676060233 L165.27474533334788,403.1343836511596 M165.27474533334788,403.1343836511596 L167.33216565672154,394.6639887771576 M161.75336931247958,419.9369946249246 L314.924011768399,508.5112343981787 M314.924011768399,508.5112343981787 L316.5901964676482,500.1312795686763 M316.5901964676482,500.1312795686763 L318.45532114024616,491.69969520980334 M318.45532114024616,491.69969520980334 L320.51764046719234,483.22460916735906 M221.96250508894178,264.8278854955944 L226.83864051758337,256.8204343171807 M226.83864051758337,256.8204343171807 L231.8524731991199,248.91132754715082 M231.8524731991199,248.91132754715082 L236.9991206360914,241.1082406246005 M221.96250508894178,264.8278854955944 L375.21419327025876,353.30104462855246 M375.21419327025876,353.30104462855246 L380.0938325339395,345.2871858600036 M380.0938325339395,345.2871858600036 L385.1110499183916,337.37161746566693 M385.1110499183916,337.37161746566693 L390.2609596295652,329.5620211930948 M236.9991206360914,241.1082406246005 L390.2609596295652,329.5620211930948 M222.4339809223302,621.9395442000739 L375.44549834552737,710.5515825095716 M237.48464767697845,628.2661121895671 L232.33444120962633,626.4149094949629 M232.33444120962633,626.4149094949629 L227.3159253189601,624.3053921872455 M227.3159253189601,624.3053921872455 L222.4339809223302,621.9395442000739 M237.48464767697845,628.2661121895671 L390.4860986688993,716.8704626036257 M390.4860986688993,716.8704626036257 L385.33912639927786,715.0220126590692 M385.33912639927786,715.0220126590692 L380.3239670541792,712.9150588326737 M380.3239670541792,712.9150588326737 L375.44549834552737,710.5515825095716 M349.129332376865,615.4533036021099 L342.547565159072,618.4038345836229 M342.547565159072,618.4038345836229 L335.99121922826396,621.1043451196841 M335.99121922826396,621.1043451196841 L329.46660275156785,623.5522200716565 M349.129332376865,615.4533036021099 L502.09618211923373,703.9774225909244 M502.09618211923373,703.9774225909244 L495.51498243767514,706.9335344765228 M495.51498243767514,706.9335344765228 L488.95936192820113,709.6395119689336 M488.95936192820113,709.6395119689336 L482.43562806030934,712.0927346462814 M329.46660275156785,623.5522200716565 L482.43562806030934,712.0927346462814 M369.5539918088815,510.1579874761077 L338.1303961886774,523.8939491923712 M338.1303961886774,523.8939491923712 L308.5144678285313,528.0338899848665 M308.5144678285313,528.0338899848665 L282.42706471284373,522.331555026657 M282.42706471284373,522.331555026657 L261.3863449595717,507.1118151613829 M261.3863449595717,507.1118151613829 L246.61911533023505,483.2532821340222 M246.61911533023505,483.2532821340222 L238.9885614324939,452.1385935840982 M238.9885614324939,452.1385935840982 L238.94298489296145,415.5749601761145 M238.94298489296145,415.5749601761145 L246.4886267666394,375.68939712860475 M246.4886267666394,375.68939712860475 L261.1884793288168,334.80461920211155 M261.1884793288168,334.80461920211155 L282.1873457629143,295.3029729241514 M282.1873457629143,295.3029729241514 L308.2617050148365,259.4865875994017 M308.2617050148365,259.4865875994017 L337.8915979785877,229.44203152694652 M337.8915979785877,229.44203152694652 L369.3499748206915,206.9179432701025 M369.3499748206915,206.9179432701025 L400.8042518085281,193.2228247300241 M400.8042518085281,193.2228247300241 L430.4238023035967,189.14906423896107 M430.4238023035967,189.14906423896107 L456.4869385502043,194.9277555271372 M456.4869385502043,194.9277555271372 L477.48106165948303,210.21653548681928 M477.48106165948303,210.21653548681928 L492.1900396178548,234.1209760886782 M492.1900396178548,234.1209760886782 L499.76403154063763,265.2479228512096 M499.76403154063763,265.2479228512096 L499.7676934565148,301.7873568815842 M499.7676934565148,301.7873568815842 L492.2043864611773,341.6178067295832 M492.2043864611773,341.6178067295832 L477.51516515821055,382.42918339450057 M477.51516515821055,382.42918339450057 L456.5527909091014,421.85595568506346 M456.5527909091014,421.85595568506346 L430.532424799988,457.6131470896477 M430.532424799988,457.6131470896477 L400.96165676584394,487.62774990530636 M400.96165676584394,487.62774990530636 L369.5539918088815,510.1579874761077 M520.0068224149231,244.1954874288697 L516.6630342305061,246.2561057127404 M516.6630342305061,246.2561057127404 L513.3923678656643,247.32552133358138 M513.3923678656643,247.32552133358138 L510.39337423906835,247.33875448525785 M510.39337423906835,247.33875448525785 L507.84816006823326,246.2949330943754 M507.84816006823326,246.2949330943754 L505.9113028219095,244.25735737869755 M505.9113028219095,244.25735737869755 L504.7004565830199,241.349688169653 M520.0068224149231,244.1954874288697 L538.9856145299054,230.02622362251938 M538.9856145299054,230.02622362251938 L545.6593782826025,226.88182397353614 M545.6593782826025,226.88182397353614 L556.8979085746505,223.78218027207947 M556.8979085746505,223.78218027207947 L569.4287730494093,222.81684585758225 M569.4287730494093,222.81684585758225 L582.4495694457366,224.39137166662525 M520.0074482417947,299.49970034081434 L538.981166241247,291.78944480440964 M538.981166241247,291.78944480440964 L545.653262385303,287.24095273155933 M545.653262385303,287.24095273155933 L556.8898319425429,277.3864356295867 M556.8898319425429,277.3864356295867 L569.4203209607122,263.9076653742994 M569.4203209607122,263.9076653742994 L582.4435415796048,247.3225256300555 M504.7066316342955,319.982256645316 L505.91653208628003,315.6815149241873 M505.91653208628003,315.6815149241873 L507.85237384614425,311.41339899310265 M507.85237384614425,311.41339899310265 L510.3965914662223,307.43713706709883 M510.3965914662223,307.43713706709883 L513.3946551794107,303.9942247129009 M513.3946551794107,303.9942247129009 L516.6644652097027,301.293759629944 M516.6644652097027,301.293759629944 L520.0074482417947,299.49970034081434 M504.7066316342955,319.982256645316 L503.7776442142055,324.56000886139265 M503.7776442142055,324.56000886139265 L502.7580913932739,329.16063315673927 M502.7580913932739,329.16063315673927 L501.64869369525746,333.7810129851777 M509.06605181152827,348.86556705460146 L506.1913853897919,348.548342850053 M506.1913853897919,348.548342850053 L503.8219857575736,347.1875457322351 M503.8219857575736,347.1875457322351 L502.1017500161755,344.86573072102897 M502.1017500161755,344.86573072102897 L501.1351821516631,341.7238347670084 M501.1351821516631,341.7238347670084 L500.98102823932015,337.9525915485258 M500.98102823932015,337.9525915485258 L501.64869369525746,333.7810129851777 M509.06605181152827,348.86556705460146 L526.5378705702831,347.9198080993311 M526.5378705702831,347.9198080993311 L531.8220068424165,349.6279810875935 M531.8220068424165,349.6279810875935 L539.6938035358666,354.9419091825659 M539.6938035358666,354.9419091825659 L547.3062946000734,363.6320754469743 M547.3062946000734,363.6320754469743 L554.0114934323008,375.5237953329536 M483.2015387166575,410.28000213194645 L497.65376879453964,416.50084186441126 M497.65376879453964,416.50084186441126 L503.59494029188465,416.64785565401877 M503.59494029188465,416.64785565401877 L514.6262522947764,414.4584053157336 M514.6262522947764,414.4584053157336 L528.091047860887,409.2523285783443 M528.091047860887,409.2523285783443 L543.2885287972006,400.98109750952443 M464.872867455626,421.10739951508754 L467.57660388873484,417.27314395917455 M467.57660388873484,417.27314395917455 L470.6799910776667,414.04091025861624 M470.6799910776667,414.04091025861624 L473.9945439379435,411.6069862495328 M473.9945439379435,411.6069862495328 L477.31896638261856,410.11915973891087 M477.31896638261856,410.11915973891087 L480.4513612047621,409.66770897396754 M480.4513612047621,409.66770897396754 L483.2015387166575,410.28000213194645 M464.872867455626,421.10739951508754 L462.2000376387611,425.4683688289485 M462.2000376387611,425.4683688289485 L459.4646754769074,429.78429735152025 M459.4646754769074,429.78429735152025 L456.6686092497234,434.05228157886256 M453.8510076555301,456.59035890956346 L452.3559230634931,453.9976355867317 M452.3559230634931,453.9976355867317 L451.6380286991884,450.6393200033971 M451.6380286991884,450.6393200033971 L451.7409654608624,446.71930896247494 M451.7409654608624,446.71930896247494 L452.65852741965597,442.4756476238978 M452.65852741965597,442.4756476238978 L454.33501076663094,438.16605191249704 M454.33501076663094,438.16605191249704 L456.6686092497234,434.05228157886256 M453.8510076555301,456.59035890956346 L464.2826305653488,469.155730857041 M464.2826305653488,469.155730857041 L466.5044609422164,475.17155608485183 M466.5044609422164,475.17155608485183 L468.5186823664221,487.2103102395217 M468.5186823664221,487.2103102395217 L468.8049965725918,502.798852125003 M468.8049965725918,502.798852125003 L467.07452434239997,521.2387853331788 M410.31778260947556,504.6728627346249 L415.67004235035705,522.851625342937 M415.67004235035705,522.851625342937 L418.99869399224343,527.6459997795107 M418.99869399224343,527.6459997795107 L426.33188286908165,533.8111225199953 M426.33188286908165,533.8111225199953 L436.4684847854271,538.5201625264937 M436.4684847854271,538.5201625264937 L449.0300559308179,541.172860914656 M394.7672078264568,502.4191432999524 L398.1085999625393,500.26542399277037 M398.1085999625393,500.26542399277037 L401.39660239751163,499.0923358631351 M401.39660239751163,499.0923358631351 L404.4315435113716,498.9710409367934 M404.4315435113716,498.9710409367934 L407.0291564119652,499.90884007414627 M407.0291564119652,499.90884007414627 L409.0317495409062,501.84873813318376 M409.0317495409062,501.84873813318376 L410.31778260947556,504.6728627346249 M394.7672078264568,502.4191432999524 L391.1967846740313,505.1823879488573 M391.1967846740313,505.1823879488573 L387.61158971867656,507.84691305442635 M387.61158971867656,507.84691305442635 L384.01403471068613,510.41088904481717 M371.847995464448,533.2658777573481 L372.2071627802395,529.2183345887606 M372.2071627802395,529.2183345887606 L373.36936938854416,524.9257267732617 M373.36936938854416,524.9257267732617 L375.26405218218224,520.6487580861437 M375.26405218218224,520.6487580861437 L377.7761468612233,516.6471964226159 M377.7761468612233,516.6471964226159 L380.75307818040636,513.1640605074126 M380.75307818040636,513.1640605074126 L384.01403471068613,510.41088904481717 M371.847995464448,533.2658777573481 L371.92939759026285,555.3664518149258 M371.92939759026285,555.3664518149258 L370.38263004523355,563.7865349632978 M370.38263004523355,563.7865349632978 L365.8959878498548,578.7414149699825 M365.8959878498548,578.7414149699825 L358.7577800703856,596.2973334252267 M358.7577800703856,596.2973334252267 L349.129332376865,615.4533036021099 M324.42362896226996,552.779566738908 L318.9672519052551,577.1655780124433 M318.9672519052551,577.1655780124433 L318.62482365298115,585.0922894125626 M318.62482365298115,585.0922894125626 L319.9309527831284,597.6661166002152 M319.9309527831284,597.6661166002152 L323.52328960296876,610.8070343815891 M323.52328960296876,610.8070343815891 L329.46660275156785,623.5522200716565 M316.5842170552612,538.1492485308844 L319.50475778382236,538.3600515937503 M319.50475778382236,538.3600515937503 L321.9352453985272,539.6194499839303 M321.9352453985272,539.6194499839303 L323.7281342443447,541.8508838536064 M323.7281342443447,541.8508838536064 L324.77462735430663,544.9188212410294 M324.77462735430663,544.9188212410294 L325.0112304230248,548.6369741688246 M325.0112304230248,548.6369741688246 L324.42362896226996,552.779566738908 M316.5842170552612,538.1492485308844 L313.24699869468935,538.4375304081412 M313.24699869468935,538.4375304081412 L309.94753490509515,538.6045302228982 M309.94753490509515,538.6045302228982 L306.6880507350005,538.6501233413117 M289.0169220091117,554.5755274421313 L291.11948515770433,550.3550574997465 M291.11948515770433,550.3550574997465 L293.79625796761763,546.4883663511957 M293.79625796761763,546.4883663511957 L296.8846532450541,543.2103132240557 M296.8846532450541,543.2103132240557 L300.19709580592314,540.7199489543048 M300.19709580592314,540.7199489543048 L303.53241469712987,539.1684966798213 M303.53241469712987,539.1684966798213 L306.6880507350005,538.6501233413117 M289.0169220091117,554.5755274421313 L278.70407916622105,579.2150419390138 M278.70407916622105,579.2150419390138 L273.87190633789413,587.3728896465644 M273.87190633789413,587.3728896465644 L264.2936019135204,600.5065842049924 M264.2936019135204,600.5065842049924 L251.97751727503731,614.4667227867396 M251.97751727503731,614.4667227867396 L237.48464767697845,628.2661121895671 M252.73711589782843,539.2925474167988 L238.18080607843908,562.1555914277664 M238.18080607843908,562.1555914277664 L234.26769832148025,570.7041685543496 M234.26769832148025,570.7041685543496 L229.11830527259292,585.7076243829168 M229.11830527259292,585.7076243829168 L225.01080776110425,603.1261461976475 M225.01080776110425,603.1261461976475 L222.4339809223302,621.9395442000739 M255.11123436058995,516.91184086622 L256.68327525612744,519.4236418927943 M256.68327525612744,519.4236418927943 L257.48336992809686,522.7191687059435 M257.48336992809686,522.7191687059435 L257.4629701806625,526.5983400777889 M257.4629701806625,526.5983400777889 L256.62335761128156,530.825625201423 M256.62335761128156,530.825625201423 L255.0155332757282,535.1444209653106 M255.0155332757282,535.1444209653106 L252.73711589782843,539.2925474167988 M255.11123436058995,516.91184086622 L253.0668186826758,514.6300288635824 M253.0668186826758,514.6300288635824 L251.1008481857476,512.2428125612942 M251.1008481857476,512.2428125612942 L249.2146803371813,509.75178016860303 M231.6373436203787,513.6784239603576 L234.81934304572695,510.62538701385733 M234.81934304572695,510.62538701385733 L238.1638936053473,508.41357229661764 M238.1638936053473,508.41357229661764 L241.46787348292446,507.1772483161097 M241.46787348292446,507.1772483161097 L244.5306466027119,506.99144619374044 M244.5306466027119,506.99144619374044 L247.16624692136378,507.86737851032393 M247.16624692136378,507.86737851032393 L249.2146803371813,509.75178016860303 M231.6373436203787,513.6784239603576 L214.1815292133691,533.034179905724 M214.1815292133691,533.034179905724 L207.59028813748208,538.3376223816936 M207.59028813748208,538.3376223816936 L195.94871865633957,545.473500226051 M195.94871865633957,545.473500226051 L182.351708875339,551.3937651505546 M182.351708875339,551.3937651505546 L167.58314324838642,555.4378618130852 M167.58314324838642,555.4378618130852 L165.5043453280057,549.361628451589 M165.5043453280057,549.361628451589 L163.62218708639995,543.1008437071698 M163.62218708639995,543.1008437071698 L161.93846531338198,536.6615572520134 M218.04701328907768,468.39500831765815 L198.99609972812914,482.4619752004965 M198.99609972812914,482.4619752004965 L192.74735540683253,488.91506721441345 M192.74735540683253,488.91506721441345 L182.76283497048476,501.58183138748285 M182.76283497048476,501.58183138748285 L172.24049165116003,517.7481662574647 M172.24049165116003,517.7481662574647 L161.93846531338198,536.6615572520134 M229.89977784120575,445.36709427053665 L229.62140954518114,449.38495575216507 M229.62140954518114,449.38495575216507 L228.53390502347662,453.6721427142559 M228.53390502347662,453.6721427142559 L226.70332408473692,457.9683957902077 M226.70332408473692,457.9683957902077 L224.2407748852711,462.0129399669354 M224.2407748852711,462.0129399669354 L221.2957557968073,465.5602550902893 M221.2957557968073,465.5602550902893 L218.04701328907768,468.39500831765815 M229.89977784120575,445.36709427053665 L229.8000882606456,441.2365900023752 M229.8000882606456,441.2365900023752 L229.7947010541829,437.05015408203644 M229.7947010541829,437.05015408203644 L229.88362506950244,432.8106146440661 M217.98687366359357,423.46910149177165 L221.23880457694128,422.55689021466407 M221.23880457694128,422.55689021466407 L224.1892291962924,422.706425064958 M224.1892291962924,422.706425064958 L226.65902821485733,423.90854611696403 M226.65902821485733,423.90854611696403 L228.49825647636254,426.09020278464686 M228.49825647636254,426.09020278464686 L229.59531379714116,429.1188611173245 M229.59531379714116,429.1188611173245 L229.88362506950244,432.8106146440661 M217.98687366359357,423.46910149177165 L198.92342578361985,431.37199187357385 M198.92342578361985,431.37199187357385 L192.66501435709543,432.12734218025304 M192.66501435709543,432.12734218025304 L182.65736087335688,430.9812669652455 M182.65736087335688,430.9812669652455 L172.10064667787614,426.95886175006615 M172.10064667787614,426.95886175006615 L161.75336931247958,419.9369946249246 M231.44402453594626,362.54827838480423 L213.95140146325443,363.3255596492733 M213.95140146325443,363.3255596492733 L207.35107479243382,365.62417826449143 M207.35107479243382,365.62417826449143 L195.69944307255108,371.9151018342631 M195.69944307255108,371.9151018342631 L182.09779648028444,381.67649519583733 M182.09779648028444,381.67649519583733 L167.33216565672154,394.6639887771576 M249.01811842165142,346.203166044406 L246.9756379112914,350.4501165076627 M246.9756379112914,350.4501165076627 L244.34407148803473,354.3655918662655 M244.34407148803473,354.3655918662655 L241.28314916669194,357.7119145844612 M241.28314916669194,357.7119145844612 L237.97866989190373,360.2859350419095 M237.97866989190373,360.2859350419095 L234.63122287879884,361.9313756561638 M234.63122287879884,361.9313756561638 L231.44402453594626,362.54827838480423 M249.01811842165142,346.203166044406 L250.89709701991598,341.53644112351253 M250.89709701991598,341.53644112351253 L252.85619595847996,336.8812090957453 M252.85619595847996,336.8812090957453 L254.89406669830066,332.24063263972386 M252.46812658507136,312.58891428931184 L254.75549052604882,314.11066329062095 M254.75549052604882,314.11066329062095 L256.3728166286988,316.5768045626436 M256.3728166286988,316.5768045626436 L257.22195340120123,319.83753654027936 M257.22195340120123,319.83753654027936 L257.251393252086,323.69488076048367 M257.251393252086,323.69488076048367 L256.459387717667,327.9146326962955 M256.459387717667,327.9146326962955 L254.89406669830066,332.24063263972386 M252.46812658507136,312.58891428931184 L237.86107741162772,306.50648067219385 M237.86107741162772,306.50648067219385 L233.92759727400647,302.4665911424371 M233.92759727400647,302.4665911424371 L228.74103055137425,293.39164909036833 M228.74103055137425,293.39164909036833 L224.5888066807107,280.6937525493621 M224.5888066807107,280.6937525493621 L221.96250508894178,264.8278854955944 M288.7096653743328,255.41700093042496 L278.3430970657711,242.64590637808251 M278.3430970657711,242.64590637808251 L273.49200009684,240.0538437780229 M273.49200009684,240.0538437780229 L263.88174070793104,237.957680749815 M263.88174070793104,237.957680749815 L251.5296573876587,238.19528360209262 M251.5296573876587,238.19528360209262 L236.9991206360914,241.1082406246005 M306.414951386609,250.9643630149722 L303.25783255676623,254.08827755802744 M303.25783255676623,254.08827755802744 L299.9190597399162,256.3850592144796 M299.9190597399162,256.3850592144796 L296.6013213471606,257.7152299869244 M296.6013213471606,257.7152299869244 L293.50603159948804,257.998001615616 M293.50603159948804,257.998001615616 L290.8211268612831,257.21612194239157 M290.8211268612831,257.21612194239157 L288.7096653743328,255.41700093042496 M306.414951386609,250.9643630149722 L309.67512575438036,247.2470049426471 M309.67512575438036,247.2470049426471 L312.9756180710854,243.60496174908553 M312.9756180710854,243.60496174908553 L316.3141957524007,240.04069048276182 M324.1304594770406,216.33213370577946 L324.7255508757807,219.8040947550698 M324.7255508757807,219.8040947550698 L324.4953220807572,223.8023785057625 M324.4953220807572,223.8023785057625 L323.4537816520485,228.08422610765572 M323.4537816520485,228.08422610765572 L321.6641892090911,232.3897153065397 M321.6641892090911,232.3897153065397 L319.2351766443054,236.45752036480906 M319.2351766443054,236.45752036480906 L316.3141957524007,240.04069048276182 M324.1304594770406,216.33213370577946 L318.62790137848253,198.19656258831563 M318.62790137848253,198.19656258831563 L318.27100814865105,190.64666504715387 M318.27100814865105,190.64666504715387 L319.55559580539875,176.53156464401093 M319.55559580539875,176.53156464401093 L323.12788677045,159.20212448443178 M323.12788677045,159.20212448443178 L329.05546148279194,139.54730502592986 M371.6145975068128,181.11176843762865 L371.666721354935,158.86125437010372 M371.666721354935,158.86125437010372 L370.1071564525163,152.20505154425615 M370.1071564525163,152.20505154425615 L365.59530745450763,142.3912197256526 M365.59530745450763,142.3912197256526 L358.4239833827396,133.03084992425875 M358.4239833827396,133.03084992425875 L348.7551015266147,124.94175841924596 M383.8188135171231,189.96531903171757 L380.5521717222572,190.9725355311323 M380.5521717222572,190.9725355311323 L377.5687694863542,190.920217842401 M377.5687694863542,190.920217842401 L375.0497635256281,189.8114757639389 M375.0497635256281,189.8114757639389 L373.14813836629327,187.71354107553282 M373.14813836629327,187.71354107553282 L371.9794092630573,184.75374354098804 M371.9794092630573,184.75374354098804 L371.6145975068128,181.11176843762865 M383.8188135171231,189.96531903171757 L387.4220196068461,188.37977056366915 M387.4220196068461,188.37977056366915 L391.0129418784756,186.90927465797918 M391.0129418784756,186.90927465797918 L394.5891547184624,185.55478562699255 M410.15029802446554,165.3342196723926 L408.8659130935892,169.6506049768775 M408.8659130935892,169.6506049768775 L406.863545077728,173.90813740318788 M406.863545077728,173.90813740318788 L404.26474378556975,177.84836091124077 M404.26474378556975,177.84836091124077 L401.2272561834421,181.2321162182629 M401.2272561834421,181.2321162182629 L397.9354510341201,183.85399708259766 M397.9354510341201,183.85399708259766 L394.5891547184624,185.55478562699255 M410.15029802446554,165.3342196723926 L415.4905101827239,140.92426011075338 M415.4905101827239,140.92426011075338 L418.818622443843,132.26960768854514 M418.818622443843,132.26960768854514 L426.1557417325887,117.61061638994687 M426.1557417325887,117.61061638994687 L436.3028818077537,101.16930059684091 M436.3028818077537,101.16930059684091 L448.88219203296285,83.98509753593487 M453.76238520485896,163.24547586606124 L464.19791818340684,138.60017259293465 M464.19791818340684,138.60017259293465 L466.4193720507969,130.00131104400566 M466.4193720507969,130.00131104400566 L468.43036139941864,115.60058561230056 M468.43036139941864,115.60058561230056 L468.7096763601731,99.63228153983613 M468.7096763601731,99.63228153983613 L466.9676009921155,83.1295373963743 M456.5957574116334,182.5761396560626 L454.2579163566885,181.14904652994193 M454.2579163566885,181.14904652994193 L452.5774811529654,178.76690272595982 M452.5774811529654,178.76690272595982 L451.65653873665474,175.574316105589 M451.65653873665474,175.574316105589 L451.5510676480062,171.7651037398397 M451.5510676480062,171.7651037398397 L452.2675092983548,167.57058158099284 M452.2675092983548,167.57058158099284 L453.76238520485896,163.24547586606124 M456.5957574116334,182.5761396560626 L459.3963898107334,183.6236995057782 M459.3963898107334,183.6236995057782 L462.1361671515256,184.789328101456 M462.1361671515256,184.789328101456 L464.81325672943956,186.0722165021615 M483.16095078554287,175.75793284628725 L480.4087538548262,179.54657899484852 M480.4087538548262,179.54657899484852 L477.2737308376309,182.71072779818095 M477.2737308376309,182.71072779818095 L473.9461693828373,185.05831646569442 M473.9461693828373,185.05831646569442 L470.62807758764177,186.4467593202989 M470.62807758764177,186.4467593202989 L467.5208876844867,186.79172802874982 M467.5208876844867,186.79172802874982 L464.81325672943956,186.0722165021615 M483.16095078554287,175.75793284628725 L497.62488206337434,152.8363925879346 M497.62488206337434,152.8363925879346 L503.57234053706867,145.82774098191427 M503.57234053706867,145.82774098191427 L514.6164894540707,135.28162905952263 M514.6164894540707,135.28162905952263 L528.0979285889998,124.94812016189519 M528.0979285889998,124.94812016189519 L543.3144861854685,115.68584453716875 M509.05765113233366,207.4112910779959 L526.5406452820731,188.195144311479 M526.5406452820731,188.195144311479 L531.828875903467,180.38561913216816 M531.828875903467,180.38561913216816 L539.7080085524314,165.97650148978528 M539.7080085524314,165.97650148978528 L547.3296646994788,148.48132567971993 M547.3296646994788,148.48132567971993 L554.0455604777792,128.82097665227644 M501.6392473585718,231.06874580885045 L500.9705614343725,227.66396758517516 M500.9705614343725,227.66396758517516 L501.1240620739243,223.71150327497557 M501.1240620739243,223.71150327497557 L502.0904648567092,219.45138252952867 M502.0904648567092,219.45138252952867 L503.81110174822464,215.14231533409995 M503.81110174822464,215.14231533409995 L506.1814828480418,211.0460248390163 M506.1814828480418,211.0460248390163 L509.05765113233366,207.4112910779959 M501.6392473585718,231.06874580885045 L502.7498394776164,234.41285852655705 M502.7498394776164,234.41285852655705 L503.77048006704956,237.84060566980042 M503.77048006704956,237.84060566980042 L504.7004565830199,241.349688169653 M167.58314324838642,555.4378618130852 L320.6605069224678,644.0609976222456 M320.6605069224678,644.0609976222456 L318.58659228886825,637.9837988037045 M318.58659228886825,637.9837988037045 L316.7093654236815,631.7218438664011 M316.7093654236815,631.7218438664011 L315.0306183824105,625.2811836205947 M161.93846531338198,536.6615572520134 L315.0306183824105,625.2811836205947 M588.768197668551,475.91820275196164 L588.8072475969537,341.69560848708306 M654.8055127050623,319.3408209764908 L654.139377709489,315.9351654653206 M654.139377709489,315.9351654653206 L654.2954786887385,311.98105807359667 M654.2954786887385,311.98105807359667 L655.2643733200864,307.71862823362744 M655.2643733200864,307.71862823362744 L656.9872422443566,303.4067261904603 M656.9872422443566,303.4067261904603 L659.3594599724495,299.30724732206465 M659.3594599724495,299.30724732206465 L662.2369579033898,295.6691653543992 M662.2369579033898,295.6691653543992 L679.7260968582061,276.43378859749214 M679.7260968582061,276.43378859749214 L685.0175300758374,268.6176687075226 M685.0175300758374,268.6176687075226 L692.9033011178924,254.1976444377072 M692.9033011178924,254.1976444377072 L700.5337730629319,236.69053162275338 M700.5337730629319,236.69053162275338 L707.2602942495726,217.01800867003269 M636.371607150139,264.02085667527183 L650.8453535490098,241.0806638230026 M650.8453535490098,241.0806638230026 L656.7952215815264,234.06528533777455 M656.7952215815264,234.06528533777455 L667.842183134122,223.5076455147582 M667.842183134122,223.5076455147582 L681.3253451460253,213.16105650504198 M681.3253451460253,213.16105650504198 L696.5422296174922,203.88495519142464 M636.371607150139,264.02085667527183 L633.617928060039,267.8128286271178 M633.617928060039,267.8128286271178 L630.4819915319116,270.98031673612695 M630.4819915319116,270.98031673612695 L627.154140622377,273.33105554414885 M627.154140622377,273.33105554414885 L623.8364010093165,274.7222681039872 M623.8364010093165,274.7222681039872 L620.7301835498029,275.0694578931933 M620.7301835498029,275.0694578931933 L618.0240862967685,274.35148389188487 M609.8121240822725,270.8595611148591 L612.6109663295033,271.90564908777594 M612.6109663295033,271.90564908777594 L615.3488975498519,273.0698926911622 M615.3488975498519,273.0698926911622 L618.0240862967685,274.35148389188487 M609.8121240822725,270.8595611148591 L607.476149104241,269.4334809726578 M607.476149104241,269.4334809726578 L605.7979677516201,267.0515359842436 M605.7979677516201,267.0515359842436 L604.8795301546285,263.858321852122 M604.8795301546285,263.858321852122 L604.7766628066377,260.04769368242575 M604.7766628066377,260.04769368242575 L605.4956490253248,255.85105339306622 M605.4956490253248,255.85105339306622 L606.992855804539,251.52325587135607 M606.992855804539,251.52325587135607 L617.4409280074769,226.86132613748248 M617.4409280074769,226.86132613748248 L619.667306989819,218.25761604999644 M619.667306989819,218.25761604999644 L621.6872069589319,203.84991714737203 M621.6872069589319,203.84991714737203 L621.977158289988,187.87518809176987 M621.977158289988,187.87518809176987 L620.2468618241326,171.3671645777374 M563.396248059977,253.64209553300864 L568.7508142008887,229.21901551471933 M568.7508142008887,229.21901551471933 L572.0834607928722,220.5587476030417 M572.0834607928722,220.5587476030417 L579.4276025624786,205.88910364697966 M579.4276025624786,205.88910364697966 L589.5818768679827,189.4345528064706 M589.5818768679827,189.4345528064706 L602.1678796426113,172.2351926666099 M563.396248059977,253.64209553300864 L562.1094565665489,257.96102898468223 M562.1094565665489,257.96102898468223 L560.1049993787171,262.2215685936045 M560.1049993787171,262.2215685936045 L557.5045531101114,266.16507582851074 M557.5045531101114,266.16507582851074 L554.4659645312763,269.55219213967996 M554.4659645312763,269.55219213967996 L551.1736692002432,272.17730730260337 M551.1736692002432,272.17730730260337 L547.8275232520684,273.88100708480727 M537.0583807421601,278.30049548587647 L540.6612599188556,276.7119081216256 M540.6612599188556,276.7119081216256 L544.2517825288551,275.2384265513822 M544.2517825288551,275.2384265513822 L547.8275232520684,273.88100708480727 M537.0583807421601,278.30049548587647 L533.7923245851532,279.3102990358725 M533.7923245851532,279.3102990358725 L530.8101109803188,279.2599643823586 M530.8101109803188,279.2599643823586 L528.2928245207792,278.152480829021 M528.2928245207792,278.152480829021 L526.3933454016283,276.0550036248252 M526.3933454016283,276.0550036248252 L525.2270586306436,273.0948346553407 M525.2270586306436,273.0948346553407 L524.8648372462242,269.4516816785934 M524.8648372462242,269.4516816785934 L524.9319052732724,247.19243782974024 M524.9319052732724,247.19243782974024 L523.3774195261863,240.53468026894086 M523.3774195261863,240.53468026894086 L518.8739136840541,230.72004049687712 M518.8739136840541,230.72004049687712 L511.7116543473615,221.36082393249444 M511.7116543473615,221.36082393249444 L502.0519454532943,213.27505782955637 M477.37535711984157,304.7176975910939 L471.8871167335913,286.57873461733556 M471.8871167335913,286.57873461733556 L471.5354374602952,279.02612538001824 M471.5354374602952,279.02612538001824 L472.82901982299256,264.90464356646805 M472.82901982299256,264.90464356646805 L476.41158412726895,247.56602777038805 M476.41158412726895,247.56602777038805 L482.3500872387938,227.89954064147977 M477.37535711984157,304.7176975910939 L477.967884306008,308.19061547757025 M477.967884306008,308.19061547757025 L477.73505604101973,312.1906159752734 M477.73505604101973,312.1906159752734 L476.691038729344,316.47483600619495 M476.691038729344,316.47483600619495 L474.89924233882283,320.783209326178 M474.89924233882283,320.783209326178 L472.46843251321917,324.8542351936992 M472.46843251321917,324.8542351936992 L469.5461701268924,328.44076733930433 M459.6434025903192,339.37535767224483 L462.90481785712217,335.65435713153846 M462.90481785712217,335.65435713153846 L466.20648482938003,332.00867384990073 M466.20648482938003,332.00867384990073 L469.5461701268924,328.44076733930433 M459.6434025903192,339.37535767224483 L456.4854020200964,342.502613691537 M456.4854020200964,342.502613691537 L453.1463735908019,344.802535855948 M453.1463735908019,344.802535855948 L449.82902122470324,346.1354554902894 M449.82902122470324,346.1354554902894 L446.7347357108103,346.4204174081112 M446.7347357108103,346.4204174081112 L444.0513924958346,345.6400363788466 M444.0513924958346,345.6400363788466 L441.9419550599454,343.84163126335307 M441.9419550599454,343.84163126335307 L431.58797023526006,331.072511537105 M431.58797023526006,331.072511537105 L426.74048613368296,328.4826949867532 M426.74048613368296,328.4826949867532 L417.1353403178395,326.39216895590016 M417.1353403178395,326.39216895590016 L404.7878571271721,326.6381630584972 M404.7878571271721,326.6381630584972 L390.2609596295652,329.5620211930948 M405.67596243565845,401.0602327628344 L391.07863147676846,394.98524302907003 M391.07863147676846,394.98524302907003 L387.14938207787173,390.9464194373334 M387.14938207787173,390.9464194373334 L381.97091232432655,381.871417857438 M381.97091232432655,381.871417857438 L377.8288212101213,369.1713493968746 M377.8288212101213,369.1713493968746 L375.21419327025876,353.30104462855246 M405.67596243565845,401.0602327628344 L407.96142165106824,402.5810382761639 M407.96142165106824,402.5810382761639 L409.57646654029384,405.04705519333476 M409.57646654029384,405.04705519333476 L410.42308418926956,408.30848940561856 M410.42308418926956,408.30848940561856 L410.4499199822627,412.16731976965275 M410.4499199822627,412.16731976965275 L409.6553835823078,416.38925151638426 M409.6553835823078,416.38925151638426 L408.08775851962116,420.71799261996387 M402.2046915136872,434.68992695799153 L404.0860821606776,430.0201171085404 M404.0860821606776,430.0201171085404 L406.04755454490396,425.36175072012765 M406.04755454490396,425.36175072012765 L408.08775851962116,420.71799261996387 M402.2046915136872,434.68992695799153 L400.1601441556377,438.9399084315852 M400.1601441556377,438.9399084315852 L397.52696082565575,442.85868158322904 M397.52696082565575,442.85868158322904 L394.46496965415287,446.20836875149786 M394.46496965415287,446.20836875149786 L391.16003443821444,448.7856161113906 M391.16003443821444,448.7856161113906 L387.8127720480558,450.4339501906033 M387.8127720480558,450.4339501906033 L384.62638770211413,451.0532372382309 M384.62638770211413,451.0532372382309 L367.13998320298526,451.842586677554 M367.13998320298526,451.842586677554 L360.5406544726509,454.14654180720646 M360.5406544726509,454.14654180720646 L348.8892828889958,460.44775823910635 M348.8892828889958,460.44775823910635 L335.28631419229544,470.2221117929621 M335.28631419229544,470.2221117929621 L320.51764046719234,483.22460916735906 M371.13348333597537,512.0068794599383 L352.07207210450076,519.9256802836182 M352.07207210450076,519.9256802836182 L345.81556433875653,520.6855368747727 M345.81556433875653,520.6855368747727 L335.81253564418284,519.5457493864556 M335.81253564418284,519.5457493864556 L325.2625888424549,515.528878951571 M325.2625888424549,515.528878951571 L314.924011768399,508.5112343981787 M371.13348333597537,512.0068794599383 L374.3847735664563,511.0921242139455 M374.3847735664563,511.0921242139455 L377.3339601221737,511.23973200268347 M377.3339601221737,511.23973200268347 L379.80199892311515,512.4406598034896 M379.80199892311515,512.4406598034896 L381.6390517533897,514.6219293912989 M381.6390517533897,514.6219293912989 L382.7336505764345,517.6510301985468 M382.7336505764345,517.6510301985468 L383.0193695988767,521.344028839556 M383.02707750819474,533.9053917100903 L382.93020230078434,529.7733447152565 M382.93020230078434,529.7733447152565 L382.9276306817891,525.5852806806688 M382.9276306817891,525.5852806806688 L383.0193695988767,521.344028839556 M383.02707750819474,533.9053917100903 L382.7461163691954,537.9250063589753 M382.7461163691954,537.9250063589753 L381.6561501279042,542.2145959639374 M381.6561501279042,542.2145959639374 L379.8233880244773,546.5137553233756 M379.8233880244773,546.5137553233756 L377.3590705936073,550.5615330791547 M377.3590705936073,550.5615330791547 L374.41280350694115,554.1122128315251 M374.41280350694115,554.1122128315251 L371.16340895709027,556.9502575479512 M371.16340895709027,556.9502575479512 L352.1103882033245,571.0355310600551 M352.1103882033245,571.0355310600551 L345.8597164444341,577.4953446974382 M345.8597164444341,577.4953446974382 L335.87053307858025,590.1737672356564 M335.87053307858025,590.1737672356564 L325.3413825154789,606.3534864445119 M325.3413825154789,606.3534864445119 L315.0306183824105,625.2811836205947 M384.7180637526043,602.2421579504202 L367.25597803264293,621.6172043889216 M367.25597803264293,621.6172043889216 L360.6637160534531,626.9271507892573 M360.6637160534531,626.9271507892573 L349.0218419620875,634.0736480799449 M349.0218419620875,634.0736480799449 L335.42609719495084,640.0053772123947 M335.42609719495084,640.0053772123947 L320.6605069224678,644.0609976222456 M384.7180637526043,602.2421579504202 L387.9008867928646,599.1857897298675 M387.9008867928646,599.1857897298675 L391.24563279364986,596.970861770661 M391.24563279364986,596.970861770661 L394.5491680730763,595.7318316208239 M394.5491680730763,595.7318316208239 L397.61088356524664,595.543894681736 M397.61088356524664,595.543894681736 L400.2448774929492,596.418393076197 M400.2448774929492,596.418393076197 L402.2912533555959,598.3021486596037 M408.18071752815575,605.4610245400303 L406.13862519462407,603.1797015130766 M406.13862519462407,603.1797015130766 L404.175018510117,600.7928802503782 M404.175018510117,600.7928802503782 L402.2912533555959,598.3021486596037 M408.18071752815575,605.4610245400303 L409.7504628883965,607.9727441151874 M409.7504628883965,607.9727441151874 L410.54803340470676,611.2690141880017 M410.54803340470676,611.2690141880017 L410.52503416241996,615.1497083771307 M410.52503416241996,615.1497083771307 L409.68290460674655,619.3792034052987 M409.68290460674655,619.3792034052987 L408.07279857736,623.7007620353205 M408.07279857736,623.7007620353205 L405.7924732975376,627.8520366375888 M405.7924732975376,627.8520366375888 L391.22641970517367,650.733778498059 M391.22641970517367,650.733778498059 L387.309077951731,659.2883163264505 M387.309077951731,659.2883163264505 L382.1515903751834,674.3010754204812 M382.1515903751834,674.3010754204812 L378.0339731679346,691.729136378704 M378.0339731679346,691.729136378704 L375.44549834552737,710.5515825095716 M442.0479821565304,643.1165188507717 L431.7225644765786,667.7725560770524 M431.7225644765786,667.7725560770524 L426.8867766576547,675.9368293842675 M426.8867766576547,675.9368293842675 L417.30334780859715,689.0820811343913 M417.30334780859715,689.0820811343913 L404.98264140029517,703.0559436131889 M404.98264140029517,703.0559436131889 L390.4860986688993,716.8704626036257 M442.0479821565304,643.1165188507717 L444.15256927943443,638.8929922257685 M444.15256927943443,638.8929922257685 L446.8309061210496,635.0229950668544 M446.8309061210496,635.0229950668544 L449.9203104513095,631.7415874550933 M449.9203104513095,631.7415874550933 L453.2331457849439,629.2480239723577 M453.2331457849439,629.2480239723577 L456.5682172896271,627.693722041317 M456.5682172896271,627.693722041317 L459.72298081787886,627.1730216168058 M469.61565400104195,626.6652861732457 L466.27953347300917,626.9559279986187 M466.27953347300917,626.9559279986187 L462.9812343214235,627.1252152090914 M462.9812343214235,627.1252152090914 L459.72298081787886,627.1730216168058 M469.61565400104195,626.6652861732457 L472.5349225041871,626.8742038942164 M472.5349225041871,626.8742038942164 L474.96362246298014,628.132454454118 M474.96362246298014,628.132454454118 L476.7543168459672,630.3635475882339 M476.7543168459672,630.3635475882339 L477.798341976708,633.431971921842 M477.798341976708,633.431971921842 L478.03235343297234,637.1514098584256 M478.03235343297234,637.1514098584256 L477.44219411147566,641.2960074458268 M477.44219411147566,641.2960074458268 L471.9715335250782,665.6951656441178 M471.9715335250782,665.6951656441178 L471.62390829949595,673.6251855119813 M471.62390829949595,673.6251855119813 L472.9210774818026,686.2030136461335 M472.9210774818026,686.2030136461335 L476.50318729669596,699.3466102115173 M476.50318729669596,699.3466102115173 L482.43562806030934,712.0927346462814 M524.8613079253867,621.742794131498 L524.9278150252765,643.8518930183525 M524.9278150252765,643.8518930183525 L523.375984491353,652.2762861711789 M523.375984491353,652.2762861711789 L518.8810246357627,667.2399924324326 M518.8810246357627,667.2399924324326 L511.73377843177195,684.8075324014816 M511.73377843177195,684.8075324014816 L502.09618211923373,703.9774225909244 M524.8613079253867,621.742794131498 L525.2230581195045,617.6934373908196 M525.2230581195045,617.6934373908196 L526.3877011027992,613.3983798833194 M526.3877011027992,613.3983798833194 L528.2845257943155,609.118474197206 M528.2845257943155,609.118474197206 L530.7983377799151,605.1136666603874 M530.7983377799151,605.1136666603874 L533.7764574902545,601.6271731838023 M533.7764574902545,601.6271731838023 L537.0380012843873,598.8707364286082 M547.7923793568727,590.8686457426572 L544.2214824124283,593.6353678107143 M544.2214824124283,593.6353678107143 L540.6358857080901,596.3033420082712 M540.6358857080901,596.3033420082712 L537.0380012843873,598.8707364286082 M547.7923793568727,590.8686457426572 L551.1339240592795,588.7118400160256 M551.1339240592795,588.7118400160256 L554.4214400792519,587.5360822965313 M554.4214400792519,587.5360822965313 L557.455285369138,587.4126966600237 M557.455285369138,587.4126966600237 L560.0512596165498,588.3491108261431 M560.0512596165498,588.3491108261431 L562.0517708079394,590.2884136467079 M562.0517708079394,590.2884136467079 L563.3354051421284,593.112768767602 M563.3354051421284,593.112768767602 L568.6733591083223,611.2949834673524 M568.6733591083223,611.2949834673524 L571.9974933884621,616.0889765688869 M571.9974933884621,616.0889765688869 L579.3236874912844,622.2515521463422 M579.3236874912844,622.2515521463422 L589.4531842337933,626.9555910525559 M589.4531842337933,626.9555910525559 L602.0080897485063,629.6008567318503 M606.8840762578742,544.9822862598493 L617.3031921377769,557.545514723322 M617.3031921377769,557.545514723322 L619.5201113267357,563.5621792564345 M619.5201113267357,563.5621792564345 L621.5254494745764,575.6042492780431 M621.5254494745764,575.6042492780431 L621.8011633636445,591.1986463371283 M621.8011633636445,591.1986463371283 L620.0589562966973,609.646897070293 M606.8840762578742,544.9822862598493 L605.391316773394,542.3895624270144 M605.391316773394,542.3895624270144 L604.6759607311416,539.0304257951201 M604.6759607311416,539.0304257951201 L604.7814949384922,535.108822973044 M604.7814949384922,535.108822973044 L605.7015557472473,530.8628957740348 M605.7015557472473,530.8628957740348 L607.3802875969111,526.550497759264 M607.3802875969111,526.550497759264 L609.7157476439604,522.4335589303122 M617.9255292226426,509.47812706872435 L615.2508032817204,513.8425891737951 M615.2508032817204,513.8425891737951 L612.513599582625,518.1620350795374 M612.513599582625,518.1620350795374 L609.7157476439604,522.4335589303122 M617.9255292226426,509.47812706872435 L620.630795362887,505.64056256889313 M620.630795362887,505.64056256889313 L623.7351519100287,502.404984936523 M623.7351519100287,502.404984936523 L627.0500548758405,499.9678851183584 M627.0500548758405,499.9678851183584 L630.3741868901445,498.4772437780666 M630.3741868901445,498.4772437780666 L633.5056684140557,498.02351005074445 M633.5056684140557,498.02351005074445 L636.2543652382435,498.634190661863 M636.2543652382435,498.634190661863 L650.696791546364,504.8477223672586 M650.696791546364,504.8477223672586 L656.6355540244058,504.99079560087466 M656.6355540244058,504.99079560087466 L667.6640492098618,502.7930725595977 M667.6640492098618,502.7930725595977 L681.1271101655511,497.5759149636866 M681.1271101655511,497.5759149636866 L696.324243554661,489.2912481500214 M662.150155726149,437.178492067211 L679.6158180279688,436.220616266501 M679.6158180279688,436.220616266501 L684.896749400194,437.925899652141 M684.896749400194,437.925899652141 L692.7619070019116,443.23659877477803 M692.7619070019116,443.23659877477803 L700.3655862078431,451.92502116585246 M700.3655862078431,451.92502116585246 L707.0601701115525,463.816849287833 M662.150155726149,437.178492067211 L659.276820114987,436.8630776712296 M659.276820114987,436.8630776712296 L656.9092571406313,435.5033448625059 M656.9092571406313,435.5033448625059 L655.1912524524218,433.1817839345675 M655.1912524524218,433.1817839345675 L654.2271746192421,430.03931631874764 M654.2271746192421,430.03931631874764 L654.0756185722635,426.2667103354273 M654.0756185722635,426.2667103354273 L654.7458319872999,422.0930606426563 M657.8118681303727,408.28688173054934 L656.8801608868603,412.8670390066508 M656.8801608868603,412.8670390066508 L655.8579080583713,417.4701380563398 M655.8579080583713,417.4701380563398 L654.7458319872999,422.0930606426563 M657.8118681303727,408.28688173054934 L659.0241928513547,403.98365375778064 M659.0241928513547,403.98365375778064 L660.9621548776743,399.71257618793544 M660.9621548776743,399.71257618793544 L663.5080599618905,395.73305716545235 M663.5080599618905,395.73305716545235 L666.5072758168653,392.28679013168914 M666.5072758168653,392.28679013168914 L669.7776326567125,389.5830765704961 M669.7776326567125,389.5830765704961 L673.1205239429596,387.7860722731425 M673.1205239429596,387.7860722731425 L692.092055396603,380.0600643250595 M692.092055396603,380.0600643250595 L698.764618535117,375.5053187013794 M698.764618535117,375.5053187013794 L710.0034510036751,365.6394169524608 M710.0034510036751,365.6394169524608 L722.5381385916621,352.1469835622954 M722.5381385916621,352.1469835622954 L735.5674566765724,335.5466420556122 M673.157120497383,332.4603356551655 L692.1380752846073,318.27280452808935 M692.1380752846073,318.27280452808935 L698.8113616506805,315.12269741672424 M698.8113616506805,315.12269741672424 L710.04760923106,312.0142975624862 M710.04760923106,312.0142975624862 L722.5742502244057,311.04017003430914 M722.5742502244057,311.04017003430914 L735.5889207429839,312.6065621793198 M673.157120497383,332.4603356551655 L669.8132443382456,334.52400286834387 M669.8132443382456,334.52400286834387 L666.5431286129942,335.5960323696328 M666.5431286129942,335.5960323696328 L663.545290836933,335.611285610698 M663.545290836933,335.611285610698 L661.0017675934337,334.5687677714723 M661.0017675934337,334.5687677714723 L659.0670337463248,332.5316998078904 M659.0670337463248,332.5316998078904 L657.8586145083962,329.62371161879673 M654.8055127050623,319.3408209764908 L655.9134231413332,322.6854903728984 M655.9134231413332,322.6854903728984 L656.9313606472426,326.1138870828701 M656.9313606472426,326.1138870828701 L657.8586145083962,329.62371161879673 M218.04701328907768,468.39500831765815 L371.16340895709027,556.9502575479512 M217.98687366359357,423.46910149177165 L371.13348333597537,512.0068794599383 M229.88362506950244,432.8106146440661 L383.0193695988767,521.344028839556 M229.89977784120575,445.36709427053665 L383.02707750819474,533.9053917100903 M324.42362896226996,552.779566738908 L477.44219411147566,641.2960074458268 M289.0169220091117,554.5755274421313 L442.0479821565304,643.1165188507717 M306.6880507350005,538.6501233413117 L459.72298081787886,627.1730216168058 M316.5842170552612,538.1492485308844 L469.61565400104195,626.6652861732457 M252.73711589782843,539.2925474167988 L405.7924732975376,627.8520366375888 M231.6373436203787,513.6784239603576 L384.7180637526043,602.2421579504202 M249.2146803371813,509.75178016860303 L402.2912533555959,598.3021486596037 M255.11123436058995,516.91184086622 L408.18071752815575,605.4610245400303 M288.7096653743328,255.41700093042496 L441.9419550599454,343.84163126335307 M324.1304594770406,216.33213370577946 L477.37535711984157,304.7176975910939 M316.3141957524007,240.04069048276182 L469.5461701268924,328.44076733930433 M306.414951386609,250.9643630149722 L459.6434025903192,339.37535767224483 M231.44402453594626,362.54827838480423 L384.62638770211413,451.0532372382309 M252.46812658507136,312.58891428931184 L405.67596243565845,401.0602327628344 M254.89406669830066,332.24063263972386 L408.08775851962116,420.71799261996387 M249.01811842165142,346.203166044406 L402.2046915136872,434.68992695799153 M371.6145975068128,181.11176843762865 L524.8648372462242,269.4516816785934 M410.15029802446554,165.3342196723926 L563.396248059977,253.64209553300864 M394.5891547184624,185.55478562699255 L547.8275232520684,273.88100708480727 M383.8188135171231,189.96531903171757 L537.0583807421601,278.30049548587647 M453.76238520485896,163.24547586606124 L606.992855804539,251.52325587135607 M483.16095078554287,175.75793284628725 L636.371607150139,264.02085667527183 M464.81325672943956,186.0722165021615 L618.0240862967685,274.35148389188487 M456.5957574116334,182.5761396560626 L609.8121240822725,270.8595611148591 M410.31778260947556,504.6728627346249 L563.3354051421284,593.112768767602 M371.847995464448,533.2658777573481 L524.8613079253867,621.742794131498 M384.01403471068613,510.41088904481717 L537.0380012843873,598.8707364286082 M394.7672078264568,502.4191432999524 L547.7923793568727,590.8686457426572 M483.2015387166575,410.28000213194645 L636.2543652382435,498.634190661863 M453.8510076555301,456.59035890956346 L606.8840762578742,544.9822862598493 M456.6686092497234,434.05228157886256 L609.7157476439604,522.4335589303122 M464.872867455626,421.10739951508754 L617.9255292226426,509.47812706872435 M520.0074482417947,299.49970034081434 L673.1205239429596,387.7860722731425 M509.06605181152827,348.86556705460146 L662.150155726149,437.178492067211 M501.64869369525746,333.7810129851777 L654.7458319872999,422.0930606426563 M504.7066316342955,319.982256645316 L657.8118681303727,408.28688173054934 M509.05765113233366,207.4112910779959 L662.2369579033898,295.6691653543992 M520.0068224149231,244.1954874288697 L673.157120497383,332.4603356551655 M504.7004565830199,241.349688169653 L657.8586145083962,329.62371161879673 M501.6392473585718,231.06874580885045 L654.8055127050623,319.3408209764908 M194.95366413132209,409.2181234411914 L163.5267689257541,422.9238807375428 M163.5267689257541,422.9238807375428 L133.90099627204086,427.0392621253066 M133.90099627204086,427.0392621253066 L107.79777209197061,421.31944736107926 M107.79777209197061,421.31944736107926 L86.73616804612732,406.09033341374595 M86.73616804612732,406.09033341374595 L71.94419832538739,382.2310877481726 M71.94419832538739,382.2310877481726 L64.2864810910981,351.12439847389874 M64.2864810910981,351.12439847389874 L64.2128936140735,314.5770164939412 M64.2128936140735,314.5770164939412 L71.73130480845498,274.7150125554983 M71.73130480845498,274.7150125554983 L86.40629241706779,233.85972712936868 M86.40629241706779,233.85972712936868 L107.38410989595991,194.3917836861226 M107.38410989595991,194.3917836861226 L133.44246580426045,158.6113418746519 M133.44246580426045,158.6113418746519 L163.06233704430707,128.60287080760003 M163.06233704430707,128.60287080760003 L194.51726044136427,106.11290463037193 M194.51726044136427,106.11290463037193 L225.9748545180349,92.44795958366615 M225.9748545180349,92.44795958366615 L255.6042983350483,88.39867310776162 M255.6042983350483,88.39867310776162 L281.6833249674934,94.1947239110595 M281.6833249674934,94.1947239110595 L302.6984061032144,109.49275031765973 M302.6984061032144,109.49275031765973 L317.4321854077276,133.39779781804225 M317.4321854077276,133.39779781804225 L325.03337541000633,164.51668568430804 M325.03337541000633,164.51668568430804 L325.06504853533704,201.03986844352607 M325.06504853533704,201.03986844352607 L317.5289379579279,240.84681908094598 M317.5289379579279,240.84681908094598 L302.864520662653,281.628809163617 M302.864520662653,281.628809163617 L281.9231217003015,321.02200629266537 M281.9231217003015,321.02200629266537 L255.91868942042666,356.7433743637009 M255.91868942042666,356.7433743637009 L226.35789367458824,386.72197732849963 M226.35789367458824,386.72197732849963 L194.95366413132209,409.2181234411914 M194.95366413132209,409.2181234411914 L369.5539918088815,510.1579874761077 M451.96904519389716,302.3506409195299 L460.60700516838705,305.81546786782883 M460.60700516838705,305.81546786782883 L469.28547948847535,306.56810066342047 M469.28547948847535,306.56810066342047 L477.3621423359697,304.6898097221044 M477.3621423359697,304.6898097221044 L484.20608761548624,300.28002045841987 M484.20608761548624,300.28002045841987 L489.3374778380867,293.67405709845536 M489.3374778380867,293.67405709845536 L492.3816888829577,285.37172671248675 M492.3816888829577,285.37172671248675 L493.0296867477701,276.8652333774386 M493.0296867477701,276.8652333774386 L491.8026359254875,268.6865723751098 M491.8026359254875,268.6865723751098 L489.0260518576677,260.29035979174023 M489.0260518576677,260.29035979174023 L484.8983836414502,251.94449497342634 M484.8983836414502,251.94449497342634 L479.6182044024261,243.91695228568977 M479.6182044024261,243.91695228568977 L473.4128551441128,236.45760645492186 M473.4128551441128,236.45760645492186 L466.6038813770195,229.756770545465 M466.6038813770195,229.756770545465 L459.5321623585333,223.9924899209054 M459.5321623585333,223.9924899209054 L452.53863048798064,219.34275179803126 M452.53863048798064,219.34275179803126 L445.9361371370127,215.97395009931188 M445.9361371370127,215.97395009931188 L439.8927961090543,213.99297280625422 M439.8927961090543,213.99297280625422 L434.53011093406747,213.48749046474057 M434.53011093406747,213.48749046474057 L429.96939819523845,214.54506962441326 M429.96939819523845,214.54506962441326 L426.32246159015676,217.23524120109124 M426.32246159015676,217.23524120109124 L423.62236401054525,221.4778792164525 M423.62236401054525,221.4778792164525 L421.8632331045781,227.1188637925416 M421.8632331045781,227.1188637925416 L421.0388666144664,234.00361362599892 M421.0388666144664,234.00361362599892 L421.1436149137211,241.96900667889093 M421.1436149137211,241.96900667889093 L422.17858836442105,250.7288178814006 M422.17858836442105,250.7288178814006 L424.15009519026864,259.9053166203787 M424.15009519026864,259.9053166203787 L427.06456129381274,269.1186336398753 M427.06456129381274,269.1186336398753 L430.92634448816045,277.990090998869 M430.92634448816045,277.990090998869 L435.6815032346762,286.1730369966708 M435.6815032346762,286.1730369966708 L441.21169382887507,293.3560539872648 M441.21169382887507,293.3560539872648 L446.3941295986094,298.4132824380843 M446.3941295986094,298.4132824380843 L451.96904519389716,302.3506409195299 M260.8623849388314,152.595459325956 L261.01645718360805,286.70618312416025 M391.9238663233398,253.5659806697368 L400.55410708055405,259.7548239738371 M400.55410708055405,259.7548239738371 L408.6846137866422,268.0078606459461 M408.6846137866422,268.0078606459461 L415.84248419816015,277.84526020559497 M415.84248419816015,277.84526020559497 L421.6113820253717,288.69492247501114 M421.6113820253717,288.69492247501114 L425.65579480078736,299.92581789535245 M425.65579480078736,299.92581789535245 L427.7406244005153,310.88478513111636 M427.7406244005153,310.88478513111636 L427.7448112360833,320.93456394876637 M427.7448112360833,320.93456394876637 L425.6683820671054,329.4909436726602 M425.6683820671054,329.4909436726602 L421.63238651482567,336.05674107325035 M421.63238651482567,336.05674107325035 L415.8717402066443,340.25066403524187 M415.8717402066443,340.25066403524187 L408.72154090986174,341.8294307454471 M408.72154090986174,341.8294307454471 L400.5974873127559,340.7017762308321 M400.5974873127559,340.7017762308321 L391.9717022568865,336.93366845306247 M391.9717022568865,336.93366845306247 L383.3452834659029,330.74435865264195 M383.3452834659029,330.74435865264195 L375.21923627905164,322.4935831482459 M375.21923627905164,322.4935831482459 L368.06544131466023,312.66065441644554 M368.06544131466023,312.66065441644554 L362.299301228417,301.81664841892155 M362.299301228417,301.81664841892155 L358.25568630043284,290.5912929202535 M358.25568630043284,290.5912929202535 L356.16953033286313,279.6364907741302 M356.16953033286313,279.6364907741302 L356.16218634737265,269.58854202866473 M356.16218634737265,269.58854202866473 L358.2343508490917,261.0312381123157 M358.2343508490917,261.0312381123157 L362.26596162251536,254.46197998963828 M362.26596162251536,254.46197998963828 L368.0230890859432,250.26284193737104 M368.0230890859432,250.26284193737104 L375.1714520170918,248.67830649447683 M375.1714520170918,248.67830649447683 L383.295772417796,249.80096018267622 M383.295772417796,249.80096018267622 L391.9238663233398,253.5659806697368 M451.96904519389716,302.3506409195299 L391.9717022568865,336.93366845306247" stroke="black"  stroke-width="4"  fill="red"/></svg>